HIERARCHY
ROOT Hips
{
	OFFSET 0.000000 0.000000 0.000000
	CHANNELS 6 Xposition Yposition Zposition Zrotation Yrotation Xrotation 
	JOINT LeftUpLeg_virtual
	{
		OFFSET 0.000000 0.000000 0.000000
		CHANNELS 3 Zrotation Yrotation Xrotation
		JOINT LeftUpLeg
		{
			OFFSET 10.205400 -3.823500 0.155100
			CHANNELS 3 Zrotation Yrotation Xrotation
			JOINT LeftLeg
			{
				OFFSET 0.708757 -12.982077 0.567790
				CHANNELS 3 Zrotation Yrotation Xrotation
				JOINT LeftFoot
				{
					OFFSET -0.708756 -10.717838 -2.184338
					CHANNELS 3 Zrotation Yrotation Xrotation
					JOINT LeftToeBase
					{
						OFFSET 0.108149 -7.191104 7.560241
						CHANNELS 3 Zrotation Yrotation Xrotation
						End Site
						{
							OFFSET 0.000000 0.000000 0.000000
						}
					}
				}
			}
		}
	}
	JOINT RightUpLeg_virtual
	{
		OFFSET 0.000000 0.000000 0.000000
		CHANNELS 3 Zrotation Yrotation Xrotation
		JOINT RightUpLeg
		{
			OFFSET -10.205400 -3.823500 0.005500
			CHANNELS 3 Zrotation Yrotation Xrotation
			JOINT RightLeg
			{
				OFFSET -0.708756 -12.982134 0.610632
				CHANNELS 3 Zrotation Yrotation Xrotation
				JOINT RightFoot
				{
					OFFSET 0.708754 -10.717769 -1.945823
					CHANNELS 3 Zrotation Yrotation Xrotation
					JOINT RightToeBase
					{
						OFFSET -0.108140 -7.191069 7.372968
						CHANNELS 3 Zrotation Yrotation Xrotation
						End Site
						{
							OFFSET 0.000000 0.000000 0.000000
						}
					}
				}
			}
		}
	}
	JOINT Spine_virtual
	{
		OFFSET 0.000000 0.000000 0.000000
		CHANNELS 3 Zrotation Yrotation Xrotation
		JOINT Spine
		{
			OFFSET 0.000000 6.876099 0.125700
			CHANNELS 3 Zrotation Yrotation Xrotation
			JOINT Spine1
			{
				OFFSET 0.000000 8.022060 0.146608
				CHANNELS 3 Zrotation Yrotation Xrotation
				JOINT Spine2
				{
					OFFSET 0.000000 9.168068 0.167552
					CHANNELS 3 Zrotation Yrotation Xrotation
					JOINT Neck_virtual
					{
						OFFSET 0.000000 0.000000 0.000000
						CHANNELS 3 Zrotation Yrotation Xrotation
						JOINT Neck
						{
							OFFSET 0.000000 10.314075 0.188496
							CHANNELS 3 Zrotation Yrotation Xrotation
							JOINT Head
							{
								OFFSET 0.000000 7.643700 -2.377400
								CHANNELS 3 Zrotation Yrotation Xrotation
								End Site
								{
									OFFSET 0.000000 0.000000 0.000000
								}
							}
						}
					}
					JOINT LeftShoulder_virtual
					{
						OFFSET 0.000000 0.000000 0.000000
						CHANNELS 3 Zrotation Yrotation Xrotation
						JOINT LeftShoulder
						{
							OFFSET 4.392200 8.824978 0.174984
							CHANNELS 3 Zrotation Yrotation Xrotation
							JOINT LeftArm
							{
								OFFSET 8.771219 -2.981674 -0.026999
								CHANNELS 3 Zrotation Yrotation Xrotation
								JOINT LeftForeArm
								{
									OFFSET 8.512804 0.000000 -0.000000
									CHANNELS 3 Zrotation Yrotation Xrotation
									JOINT LeftHand
									{
										OFFSET 18.484802 0.000000 -0.000000
										CHANNELS 3 Zrotation Yrotation Xrotation
										End Site
										{
											OFFSET 0.000000 0.000000 0.000000
										}
									}
								}
							}
						}
					}
					JOINT RightShoulder_virtual
					{
						OFFSET 0.000000 0.000000 0.000000
						CHANNELS 3 Zrotation Yrotation Xrotation
						JOINT RightShoulder
						{
							OFFSET -4.392200 8.824993 0.141379
							CHANNELS 3 Zrotation Yrotation Xrotation
							JOINT RightArm
							{
								OFFSET -8.771282 -2.981682 -0.094208
								CHANNELS 3 Zrotation Yrotation Xrotation
								JOINT RightForeArm
								{
									OFFSET -8.494598 0.000000 0.000000
									CHANNELS 3 Zrotation Yrotation Xrotation
									JOINT RightHand
									{
										OFFSET -18.483803 0.000000 0.000001
										CHANNELS 3 Zrotation Yrotation Xrotation
										End Site
										{
											OFFSET 0.000000 0.000000 0.000000
										}
									}
								}
							}
						}
					}
				}
			}
		}
	}
}
MOTION
Frames: 10
Frame Time: 0.033333
6.768066 36.193615 -1.578685 179.983449 -2.988524 179.821259 -0.162132 -0.459585 14.889322 -2.547565 -4.094510 -17.826384 4.719029 5.806034 13.735557 0.634914 -1.642437 7.987003 0.000000 0.000000 0.000000 4.700546 -0.145704 14.552493 -4.219355 5.163477 -17.496336 -3.692226 2.560084 16.202090 12.044115 2.022479 1.331281 0.000000 0.000000 0.000000 2.001368 1.925540 4.411542 1.661584 -1.822349 -10.715207 -0.214351 -2.874231 5.200606 -0.033532 0.038974 -0.053205 -0.527521 -0.917623 7.206918 0.931491 2.712306 14.107396 0.000000 0.000000 0.000000 1.163148 0.114554 4.380907 -18.800275 -7.519277 1.597268 -47.350993 14.859821 13.603442 2.247107 -36.560408 1.925832 0.000000 0.000000 0.000000 -2.985403 1.039993 3.757168 24.737808 2.586111 3.361385 46.584772 -20.555669 18.231382 -3.950144 33.936177 -3.995256 0.000000 0.000000 0.000000 
6.771399 36.196815 -1.522995 179.936867 -3.059264 179.723082 -0.211768 -0.200937 14.883144 -2.622736 -3.856312 -17.909791 4.885932 6.113722 13.568257 0.332139 -1.843072 8.098472 0.000000 0.000000 0.000000 4.754103 -0.263719 14.458993 -4.048952 5.110847 -17.862879 -3.448479 1.896005 15.824935 12.161894 2.196099 0.926391 0.000000 0.000000 0.000000 1.949373 1.968393 4.658166 1.584853 -1.777186 -10.651469 -0.138290 -2.793345 5.175990 0.021328 0.094305 -0.028764 -0.617709 -0.720893 7.166843 0.903795 2.588923 14.012045 0.000000 0.000000 0.000000 1.070627 0.053518 4.334618 -18.719250 -7.556413 1.605579 -47.163546 14.996510 14.087321 2.250885 -37.089870 1.864168 0.000000 0.000000 0.000000 -3.046515 1.027003 3.767383 24.732182 2.564299 3.339710 46.463328 -20.622617 18.348485 -3.896496 33.947635 -3.902868 0.000000 0.000000 0.000000 
6.788148 36.194584 -1.465783 179.923152 -3.244628 179.758995 -0.211151 -0.312272 14.886141 -2.637286 -3.896833 -18.030004 4.992768 6.003257 13.491808 0.206779 -1.832509 8.195243 0.000000 0.000000 0.000000 4.756440 -0.361879 14.493846 -4.090432 5.112507 -18.075578 -3.407829 1.738628 15.823330 12.098743 2.414587 1.101847 0.000000 0.000000 0.000000 1.946343 1.785286 4.811755 1.562617 -1.769513 -10.662829 -0.159331 -2.772130 5.158125 -0.009575 0.046110 0.011698 -0.597339 -0.670134 7.148427 1.065374 2.453341 13.972613 0.000000 0.000000 0.000000 1.074551 0.170387 4.291826 -18.489104 -7.613688 1.720937 -46.665205 15.132417 15.190564 2.219864 -38.014377 1.793160 0.000000 0.000000 0.000000 -3.013844 1.118872 3.752076 24.751410 2.720320 3.290726 46.230320 -20.617254 18.597441 -3.903337 34.112185 -3.880411 0.000000 0.000000 0.000000 
6.816350 36.194633 -1.402871 179.897593 -3.404196 179.780428 -0.227127 -0.597599 14.871989 -2.666171 -4.014139 -18.098374 5.107971 5.784682 13.414684 0.148652 -1.683917 8.304228 0.000000 0.000000 0.000000 4.737396 -0.635048 14.430054 -4.127032 5.101432 -18.252101 -3.370739 1.533033 15.854286 12.016418 2.715567 1.266988 0.000000 0.000000 0.000000 1.931674 1.662764 4.865720 1.536355 -1.617682 -10.558299 -0.145906 -2.682650 5.131367 0.002053 0.065512 -0.019991 -0.583496 -0.631380 7.104782 1.307321 2.240190 13.883635 0.000000 0.000000 0.000000 1.013972 0.164977 4.291436 -18.248597 -7.925139 1.799840 -45.800441 14.937709 16.394968 2.123459 -39.151522 1.688306 0.000000 0.000000 0.000000 -3.054412 1.154854 3.715998 24.832297 2.706052 3.373941 46.003629 -20.520996 18.795082 -3.913333 34.205075 -3.833113 0.000000 0.000000 0.000000 
6.851596 36.201687 -1.329500 179.940200 -3.356455 179.770456 -0.238707 -0.914342 14.855571 -2.732577 -4.250488 -18.095719 5.482936 5.911546 13.351845 0.052652 -1.473933 8.415085 0.000000 0.000000 0.000000 4.752946 -0.934938 14.233739 -4.147834 5.163851 -18.359728 -3.327083 1.524468 15.869509 11.862790 3.066404 1.462111 0.000000 0.000000 0.000000 2.022662 1.405385 4.842712 1.491933 -1.492134 -10.376233 -0.179850 -2.590979 5.089717 0.018825 0.064527 -0.048774 -0.655390 -0.452135 7.128297 1.495759 1.897482 13.905857 0.000000 0.000000 0.000000 0.991193 0.328686 4.276795 -18.013973 -8.256925 1.866731 -45.005961 14.393497 17.162812 1.888951 -40.216973 1.668552 0.000000 0.000000 0.000000 -3.061931 1.342484 3.617923 24.908762 2.723331 3.399698 45.703442 -20.195741 19.077024 -3.991376 34.306435 -3.845914 0.000000 0.000000 0.000000 
6.892971 36.206974 -1.254812 179.923630 -3.093181 179.747930 -0.244221 -1.140834 14.749146 -2.868493 -4.344003 -17.980854 5.884614 5.810283 13.397425 -0.040871 -1.192030 8.612847 0.000000 0.000000 0.000000 4.725507 -1.219329 13.939372 -4.126028 5.264622 -18.355131 -3.247396 1.639313 15.836465 11.635163 3.462484 1.596747 0.000000 0.000000 0.000000 2.030415 1.249747 4.801626 1.486971 -1.353249 -10.143661 -0.180670 -2.370094 5.071164 0.040994 0.050110 -0.022676 -0.664088 -0.389918 7.001495 1.862403 1.589430 13.786372 0.000000 0.000000 0.000000 0.882070 0.236652 4.122078 -17.857171 -8.574695 2.005922 -44.348360 13.529652 17.489309 1.765264 -41.057715 1.450035 0.000000 0.000000 0.000000 -3.152418 1.309343 3.503955 25.017919 2.868350 3.333177 45.486058 -19.802383 19.200324 -3.930113 34.310622 -3.751523 0.000000 0.000000 0.000000 
6.934358 36.210636 -1.179471 179.947781 -2.789608 179.673303 -0.253320 -1.371705 14.573718 -3.009881 -4.329506 -17.767129 6.315006 5.797485 13.577425 -0.240199 -0.969580 8.527463 0.000000 0.000000 0.000000 4.710294 -1.456230 13.588668 -4.049959 5.395215 -18.163549 -3.211292 1.887851 15.774889 11.269355 3.812848 1.675759 0.000000 0.000000 0.000000 2.122267 1.119906 4.743999 1.405250 -1.201614 -9.851499 -0.201625 -2.401246 5.006968 0.018271 0.121289 -0.037174 -0.680152 -0.330125 6.946097 2.045902 1.184311 13.708541 0.000000 0.000000 0.000000 0.915739 0.388761 4.126186 -17.758844 -9.048854 2.088009 -43.994693 12.421312 17.386733 1.741425 -41.455901 1.079548 0.000000 0.000000 0.000000 -3.138246 1.303381 3.450455 25.117708 2.954492 3.287783 45.294072 -19.157909 19.272837 -3.853018 34.173492 -3.649788 0.000000 0.000000 0.000000 
6.992752 36.214943 -1.128264 179.906964 -2.356277 179.615124 -0.334864 -1.485719 14.323371 -3.112050 -4.238191 -17.446975 6.786100 5.885070 13.861825 -0.589510 -0.870400 8.362406 0.000000 0.000000 0.000000 4.649419 -1.579521 13.196440 -3.879170 5.557910 -17.839908 -3.180110 2.220425 15.699641 10.839748 4.150817 1.680092 0.000000 0.000000 0.000000 2.151295 1.062178 4.601502 1.326078 -1.126222 -9.499851 -0.223065 -2.350938 4.940678 0.066288 0.129592 -0.070016 -0.643410 -0.330808 6.857490 2.346367 0.856361 13.548723 0.000000 0.000000 0.000000 0.861048 0.405407 4.077799 -17.734714 -9.410283 2.232765 -43.935421 11.328354 16.589269 1.536687 -41.467171 0.884054 0.000000 0.000000 0.000000 -3.196389 1.342359 3.417017 25.315336 3.038288 3.296346 45.280346 -18.297013 19.395053 -3.880780 33.844694 -3.713852 0.000000 0.000000 0.000000 
7.072943 36.217247 -1.097084 179.920788 -1.989961 179.625560 -0.338981 -1.614234 13.972701 -3.208118 -4.118439 -17.061500 7.342271 5.962235 14.208167 -1.022245 -0.865277 8.133208 0.000000 0.000000 0.000000 4.649367 -1.622297 12.787019 -3.611186 5.763327 -17.402856 -3.212780 2.522460 15.602841 10.321002 4.355549 1.602836 0.000000 0.000000 0.000000 2.211548 1.040389 4.254390 1.213605 -1.129025 -9.063760 -0.188891 -2.365925 4.954753 -0.005740 0.118376 -0.064499 -0.569681 -0.397875 6.764942 2.584735 0.526021 13.323235 0.000000 0.000000 0.000000 0.923724 0.419927 3.977378 -17.711734 -9.739381 2.416947 -44.091788 10.025903 15.685507 1.510844 -41.121509 0.509991 0.000000 0.000000 0.000000 -3.136309 1.377213 3.357436 25.512157 3.072260 3.273728 45.423678 -17.354010 19.270896 -3.805985 33.438390 -3.668074 0.000000 0.000000 0.000000 
7.189810 36.223011 -1.079223 179.964488 -1.515978 179.560510 -0.307709 -1.585530 13.591901 -3.245552 -4.007289 -16.556322 7.960066 5.959063 14.487755 -1.463825 -0.931773 7.734325 0.000000 0.000000 0.000000 4.664907 -1.549259 12.357343 -3.264446 6.036840 -16.896981 -3.323157 2.854126 15.532289 9.777604 4.355104 1.500218 0.000000 0.000000 0.000000 2.257235 1.028219 3.988547 1.079957 -1.167445 -8.635389 -0.118780 -2.397727 4.874170 0.025663 0.089430 -0.053961 -0.533911 -0.371058 6.770609 2.718258 0.216473 13.191939 0.000000 0.000000 0.000000 0.942540 0.455021 4.006071 -17.670420 -10.125589 2.616292 -44.265042 8.675541 14.533679 1.243817 -40.729740 0.408570 0.000000 0.000000 0.000000 -3.165805 1.344420 3.341273 25.732492 3.074129 3.226942 45.653227 -16.440603 18.937702 -3.785176 33.032192 -3.754322 0.000000 0.000000 0.000000 
